<mxfile host="65bd71144e">
    <diagram id="48uAS24LZ3Q4GPk9hQN1" name="Page-1">
        <mxGraphModel dx="3279" dy="2187" grid="1" gridSize="10" guides="1" tooltips="1" connect="1" arrows="1" fold="1" page="1" pageScale="1" pageWidth="850" pageHeight="1100" background="#ffffff" math="0" shadow="0">
            <root>
                <mxCell id="0"/>
                <mxCell id="1" parent="0"/>
                <mxCell id="93" value="Notificacao" style="swimlane;fontStyle=1;align=center;verticalAlign=top;childLayout=stackLayout;horizontal=1;startSize=26;horizontalStack=0;resizeParent=1;resizeParentMax=0;resizeLast=0;collapsible=1;marginBottom=0;whiteSpace=wrap;html=1;" parent="1" vertex="1">
                    <mxGeometry x="200" y="-518" width="260" height="216" as="geometry"/>
                </mxCell>
                <mxCell id="97" value="id: String" style="text;strokeColor=none;fillColor=none;align=left;verticalAlign=top;spacingLeft=4;spacingRight=4;overflow=hidden;rotatable=0;points=[[0,0.5],[1,0.5]];portConstraint=eastwest;whiteSpace=wrap;html=1;" parent="93" vertex="1">
                    <mxGeometry y="26" width="260" height="26" as="geometry"/>
                </mxCell>
                <mxCell id="94" value="tipo: String" style="text;strokeColor=none;fillColor=none;align=left;verticalAlign=top;spacingLeft=4;spacingRight=4;overflow=hidden;rotatable=0;points=[[0,0.5],[1,0.5]];portConstraint=eastwest;whiteSpace=wrap;html=1;" parent="93" vertex="1">
                    <mxGeometry y="52" width="260" height="26" as="geometry"/>
                </mxCell>
                <mxCell id="98" value="texto: String" style="text;strokeColor=none;fillColor=none;align=left;verticalAlign=top;spacingLeft=4;spacingRight=4;overflow=hidden;rotatable=0;points=[[0,0.5],[1,0.5]];portConstraint=eastwest;whiteSpace=wrap;html=1;" parent="93" vertex="1">
                    <mxGeometry y="78" width="260" height="26" as="geometry"/>
                </mxCell>
                <mxCell id="100" value="titulo: String" style="text;strokeColor=none;fillColor=none;align=left;verticalAlign=top;spacingLeft=4;spacingRight=4;overflow=hidden;rotatable=0;points=[[0,0.5],[1,0.5]];portConstraint=eastwest;whiteSpace=wrap;html=1;" parent="93" vertex="1">
                    <mxGeometry y="104" width="260" height="26" as="geometry"/>
                </mxCell>
                <mxCell id="99" value="idUsuarios: Array" style="text;strokeColor=none;fillColor=none;align=left;verticalAlign=top;spacingLeft=4;spacingRight=4;overflow=hidden;rotatable=0;points=[[0,0.5],[1,0.5]];portConstraint=eastwest;whiteSpace=wrap;html=1;" parent="93" vertex="1">
                    <mxGeometry y="130" width="260" height="26" as="geometry"/>
                </mxCell>
                <mxCell id="95" value="" style="line;strokeWidth=1;fillColor=none;align=left;verticalAlign=middle;spacingTop=-1;spacingLeft=3;spacingRight=3;rotatable=0;labelPosition=right;points=[];portConstraint=eastwest;strokeColor=inherit;" parent="93" vertex="1">
                    <mxGeometry y="156" width="260" height="8" as="geometry"/>
                </mxCell>
                <mxCell id="96" value="notificacao(tipo, texto, titulo, idUsuarios)" style="text;strokeColor=none;fillColor=none;align=left;verticalAlign=top;spacingLeft=4;spacingRight=4;overflow=hidden;rotatable=0;points=[[0,0.5],[1,0.5]];portConstraint=eastwest;whiteSpace=wrap;html=1;" parent="93" vertex="1">
                    <mxGeometry y="164" width="260" height="26" as="geometry"/>
                </mxCell>
                <mxCell id="109" value="removerUsuario(idUsuario)" style="text;strokeColor=none;fillColor=none;align=left;verticalAlign=top;spacingLeft=4;spacingRight=4;overflow=hidden;rotatable=0;points=[[0,0.5],[1,0.5]];portConstraint=eastwest;whiteSpace=wrap;html=1;" parent="93" vertex="1">
                    <mxGeometry y="190" width="260" height="26" as="geometry"/>
                </mxCell>
                <mxCell id="101" value="Usuario" style="swimlane;fontStyle=1;align=center;verticalAlign=top;childLayout=stackLayout;horizontal=1;startSize=26;horizontalStack=0;resizeParent=1;resizeParentMax=0;resizeLast=0;collapsible=1;marginBottom=0;whiteSpace=wrap;html=1;" parent="1" vertex="1">
                    <mxGeometry x="-265" y="-520" width="240" height="190" as="geometry"/>
                </mxCell>
                <mxCell id="102" value="id: String" style="text;strokeColor=none;fillColor=none;align=left;verticalAlign=top;spacingLeft=4;spacingRight=4;overflow=hidden;rotatable=0;points=[[0,0.5],[1,0.5]];portConstraint=eastwest;whiteSpace=wrap;html=1;" parent="101" vertex="1">
                    <mxGeometry y="26" width="240" height="26" as="geometry"/>
                </mxCell>
                <mxCell id="105" value="nome: String" style="text;strokeColor=none;fillColor=none;align=left;verticalAlign=top;spacingLeft=4;spacingRight=4;overflow=hidden;rotatable=0;points=[[0,0.5],[1,0.5]];portConstraint=eastwest;whiteSpace=wrap;html=1;" parent="101" vertex="1">
                    <mxGeometry y="52" width="240" height="26" as="geometry"/>
                </mxCell>
                <mxCell id="106" value="email: String" style="text;strokeColor=none;fillColor=none;align=left;verticalAlign=top;spacingLeft=4;spacingRight=4;overflow=hidden;rotatable=0;points=[[0,0.5],[1,0.5]];portConstraint=eastwest;whiteSpace=wrap;html=1;" parent="101" vertex="1">
                    <mxGeometry y="78" width="240" height="26" as="geometry"/>
                </mxCell>
                <mxCell id="107" value="foto: String" style="text;strokeColor=none;fillColor=none;align=left;verticalAlign=top;spacingLeft=4;spacingRight=4;overflow=hidden;rotatable=0;points=[[0,0.5],[1,0.5]];portConstraint=eastwest;whiteSpace=wrap;html=1;" parent="101" vertex="1">
                    <mxGeometry y="104" width="240" height="26" as="geometry"/>
                </mxCell>
                <mxCell id="108" value="senha: String" style="text;strokeColor=none;fillColor=none;align=left;verticalAlign=top;spacingLeft=4;spacingRight=4;overflow=hidden;rotatable=0;points=[[0,0.5],[1,0.5]];portConstraint=eastwest;whiteSpace=wrap;html=1;" parent="101" vertex="1">
                    <mxGeometry y="130" width="240" height="26" as="geometry"/>
                </mxCell>
                <mxCell id="103" value="" style="line;strokeWidth=1;fillColor=none;align=left;verticalAlign=middle;spacingTop=-1;spacingLeft=3;spacingRight=3;rotatable=0;labelPosition=right;points=[];portConstraint=eastwest;strokeColor=inherit;" parent="101" vertex="1">
                    <mxGeometry y="156" width="240" height="8" as="geometry"/>
                </mxCell>
                <mxCell id="104" value="usuario(nome, email, foto, senha)" style="text;strokeColor=none;fillColor=none;align=left;verticalAlign=top;spacingLeft=4;spacingRight=4;overflow=hidden;rotatable=0;points=[[0,0.5],[1,0.5]];portConstraint=eastwest;whiteSpace=wrap;html=1;" parent="101" vertex="1">
                    <mxGeometry y="164" width="240" height="26" as="geometry"/>
                </mxCell>
                <mxCell id="136" value="Projeto" style="swimlane;fontStyle=1;align=center;verticalAlign=top;childLayout=stackLayout;horizontal=1;startSize=26;horizontalStack=0;resizeParent=1;resizeParentMax=0;resizeLast=0;collapsible=1;marginBottom=0;whiteSpace=wrap;html=1;" parent="1" vertex="1">
                    <mxGeometry x="580" y="-452" width="340" height="476" as="geometry"/>
                </mxCell>
                <mxCell id="137" value="id: String" style="text;strokeColor=none;fillColor=none;align=left;verticalAlign=top;spacingLeft=4;spacingRight=4;overflow=hidden;rotatable=0;points=[[0,0.5],[1,0.5]];portConstraint=eastwest;whiteSpace=wrap;html=1;" parent="136" vertex="1">
                    <mxGeometry y="26" width="340" height="26" as="geometry"/>
                </mxCell>
                <mxCell id="140" value="titulo: String" style="text;strokeColor=none;fillColor=none;align=left;verticalAlign=top;spacingLeft=4;spacingRight=4;overflow=hidden;rotatable=0;points=[[0,0.5],[1,0.5]];portConstraint=eastwest;whiteSpace=wrap;html=1;" parent="136" vertex="1">
                    <mxGeometry y="52" width="340" height="26" as="geometry"/>
                </mxCell>
                <mxCell id="141" value="descricao: String" style="text;strokeColor=none;fillColor=none;align=left;verticalAlign=top;spacingLeft=4;spacingRight=4;overflow=hidden;rotatable=0;points=[[0,0.5],[1,0.5]];portConstraint=eastwest;whiteSpace=wrap;html=1;" parent="136" vertex="1">
                    <mxGeometry y="78" width="340" height="26" as="geometry"/>
                </mxCell>
                <mxCell id="142" value="dataLimite: DataTime" style="text;strokeColor=none;fillColor=none;align=left;verticalAlign=top;spacingLeft=4;spacingRight=4;overflow=hidden;rotatable=0;points=[[0,0.5],[1,0.5]];portConstraint=eastwest;whiteSpace=wrap;html=1;" parent="136" vertex="1">
                    <mxGeometry y="104" width="340" height="26" as="geometry"/>
                </mxCell>
                <mxCell id="143" value="dataEntrega: DataTime" style="text;strokeColor=none;fillColor=none;align=left;verticalAlign=top;spacingLeft=4;spacingRight=4;overflow=hidden;rotatable=0;points=[[0,0.5],[1,0.5]];portConstraint=eastwest;whiteSpace=wrap;html=1;" parent="136" vertex="1">
                    <mxGeometry y="130" width="340" height="26" as="geometry"/>
                </mxCell>
                <mxCell id="144" value="anexo: String" style="text;strokeColor=none;fillColor=none;align=left;verticalAlign=top;spacingLeft=4;spacingRight=4;overflow=hidden;rotatable=0;points=[[0,0.5],[1,0.5]];portConstraint=eastwest;whiteSpace=wrap;html=1;" parent="136" vertex="1">
                    <mxGeometry y="156" width="340" height="26" as="geometry"/>
                </mxCell>
                <mxCell id="145" value="status: String" style="text;strokeColor=none;fillColor=none;align=left;verticalAlign=top;spacingLeft=4;spacingRight=4;overflow=hidden;rotatable=0;points=[[0,0.5],[1,0.5]];portConstraint=eastwest;whiteSpace=wrap;html=1;" parent="136" vertex="1">
                    <mxGeometry y="182" width="340" height="26" as="geometry"/>
                </mxCell>
                <mxCell id="146" value="idMembros: Array" style="text;strokeColor=none;fillColor=none;align=left;verticalAlign=top;spacingLeft=4;spacingRight=4;overflow=hidden;rotatable=0;points=[[0,0.5],[1,0.5]];portConstraint=eastwest;whiteSpace=wrap;html=1;" parent="136" vertex="1">
                    <mxGeometry y="208" width="340" height="26" as="geometry"/>
                </mxCell>
                <mxCell id="147" value="idAdministradores: Array" style="text;strokeColor=none;fillColor=none;align=left;verticalAlign=top;spacingLeft=4;spacingRight=4;overflow=hidden;rotatable=0;points=[[0,0.5],[1,0.5]];portConstraint=eastwest;whiteSpace=wrap;html=1;" parent="136" vertex="1">
                    <mxGeometry y="234" width="340" height="26" as="geometry"/>
                </mxCell>
                <mxCell id="148" value="idGestor: String" style="text;strokeColor=none;fillColor=none;align=left;verticalAlign=top;spacingLeft=4;spacingRight=4;overflow=hidden;rotatable=0;points=[[0,0.5],[1,0.5]];portConstraint=eastwest;whiteSpace=wrap;html=1;" parent="136" vertex="1">
                    <mxGeometry y="260" width="340" height="26" as="geometry"/>
                </mxCell>
                <mxCell id="138" value="" style="line;strokeWidth=1;fillColor=none;align=left;verticalAlign=middle;spacingTop=-1;spacingLeft=3;spacingRight=3;rotatable=0;labelPosition=right;points=[];portConstraint=eastwest;strokeColor=inherit;" parent="136" vertex="1">
                    <mxGeometry y="286" width="340" height="8" as="geometry"/>
                </mxCell>
                <mxCell id="139" value="projeto(titulo, descricao, dataLimite, status, idGestor)" style="text;strokeColor=none;fillColor=none;align=left;verticalAlign=top;spacingLeft=4;spacingRight=4;overflow=hidden;rotatable=0;points=[[0,0.5],[1,0.5]];portConstraint=eastwest;whiteSpace=wrap;html=1;" parent="136" vertex="1">
                    <mxGeometry y="294" width="340" height="26" as="geometry"/>
                </mxCell>
                <mxCell id="149" value="projeto(titulo, descricao, dataLimite, status, anexo, idGestor)" style="text;strokeColor=none;fillColor=none;align=left;verticalAlign=top;spacingLeft=4;spacingRight=4;overflow=hidden;rotatable=0;points=[[0,0.5],[1,0.5]];portConstraint=eastwest;whiteSpace=wrap;html=1;" parent="136" vertex="1">
                    <mxGeometry y="320" width="340" height="26" as="geometry"/>
                </mxCell>
                <mxCell id="151" value="adicionarMembro(idUsuario)" style="text;strokeColor=none;fillColor=none;align=left;verticalAlign=top;spacingLeft=4;spacingRight=4;overflow=hidden;rotatable=0;points=[[0,0.5],[1,0.5]];portConstraint=eastwest;whiteSpace=wrap;html=1;" parent="136" vertex="1">
                    <mxGeometry y="346" width="340" height="26" as="geometry"/>
                </mxCell>
                <mxCell id="152" value="removerMembro(&lt;span style=&quot;color: rgb(0, 0, 0);&quot;&gt;idUsuario&lt;/span&gt;)" style="text;strokeColor=none;fillColor=none;align=left;verticalAlign=top;spacingLeft=4;spacingRight=4;overflow=hidden;rotatable=0;points=[[0,0.5],[1,0.5]];portConstraint=eastwest;whiteSpace=wrap;html=1;" parent="136" vertex="1">
                    <mxGeometry y="372" width="340" height="26" as="geometry"/>
                </mxCell>
                <mxCell id="153" value="elegerAdministrador(&lt;span style=&quot;color: rgb(0, 0, 0);&quot;&gt;idUsuario&lt;/span&gt;)" style="text;strokeColor=none;fillColor=none;align=left;verticalAlign=top;spacingLeft=4;spacingRight=4;overflow=hidden;rotatable=0;points=[[0,0.5],[1,0.5]];portConstraint=eastwest;whiteSpace=wrap;html=1;" parent="136" vertex="1">
                    <mxGeometry y="398" width="340" height="26" as="geometry"/>
                </mxCell>
                <mxCell id="154" value="deselegerAdministrador(&lt;span style=&quot;color: rgb(0, 0, 0);&quot;&gt;idUsuario&lt;/span&gt;)" style="text;strokeColor=none;fillColor=none;align=left;verticalAlign=top;spacingLeft=4;spacingRight=4;overflow=hidden;rotatable=0;points=[[0,0.5],[1,0.5]];portConstraint=eastwest;whiteSpace=wrap;html=1;" parent="136" vertex="1">
                    <mxGeometry y="424" width="340" height="26" as="geometry"/>
                </mxCell>
                <mxCell id="187" value="finalizarProjeto(dataEntrega, status)" style="text;strokeColor=none;fillColor=none;align=left;verticalAlign=top;spacingLeft=4;spacingRight=4;overflow=hidden;rotatable=0;points=[[0,0.5],[1,0.5]];portConstraint=eastwest;whiteSpace=wrap;html=1;" parent="136" vertex="1">
                    <mxGeometry y="450" width="340" height="26" as="geometry"/>
                </mxCell>
                <mxCell id="155" value="Atividade" style="swimlane;fontStyle=1;align=center;verticalAlign=top;childLayout=stackLayout;horizontal=1;startSize=26;horizontalStack=0;resizeParent=1;resizeParentMax=0;resizeLast=0;collapsible=1;marginBottom=0;whiteSpace=wrap;html=1;" parent="1" vertex="1">
                    <mxGeometry x="-340" y="-232" width="380" height="242" as="geometry"/>
                </mxCell>
                <mxCell id="21" value="id: String" style="text;strokeColor=none;fillColor=none;align=left;verticalAlign=top;spacingLeft=4;spacingRight=4;overflow=hidden;rotatable=0;points=[[0,0.5],[1,0.5]];portConstraint=eastwest;whiteSpace=wrap;html=1;" parent="155" vertex="1">
                    <mxGeometry y="26" width="380" height="26" as="geometry"/>
                </mxCell>
                <mxCell id="22" value="descricao: String" style="text;strokeColor=none;fillColor=none;align=left;verticalAlign=top;spacingLeft=4;spacingRight=4;overflow=hidden;rotatable=0;points=[[0,0.5],[1,0.5]];portConstraint=eastwest;whiteSpace=wrap;html=1;" parent="155" vertex="1">
                    <mxGeometry y="52" width="380" height="26" as="geometry"/>
                </mxCell>
                <mxCell id="23" value="dataRealizacao&lt;span style=&quot;background-color: transparent;&quot;&gt;: DateTime&lt;/span&gt;" style="text;strokeColor=none;fillColor=none;align=left;verticalAlign=top;spacingLeft=4;spacingRight=4;overflow=hidden;rotatable=0;points=[[0,0.5],[1,0.5]];portConstraint=eastwest;whiteSpace=wrap;html=1;" parent="155" vertex="1">
                    <mxGeometry y="78" width="380" height="26" as="geometry"/>
                </mxCell>
                <mxCell id="45" value="&lt;span style=&quot;background-color: transparent;&quot;&gt;&lt;font color=&quot;#000000&quot;&gt;anexo&lt;/font&gt;: String&lt;/span&gt;" style="text;strokeColor=none;fillColor=none;align=left;verticalAlign=top;spacingLeft=4;spacingRight=4;overflow=hidden;rotatable=0;points=[[0,0.5],[1,0.5]];portConstraint=eastwest;whiteSpace=wrap;html=1;" parent="155" vertex="1">
                    <mxGeometry y="104" width="380" height="26" as="geometry"/>
                </mxCell>
                <mxCell id="24" value="idUsuario: String" style="text;strokeColor=none;fillColor=none;align=left;verticalAlign=top;spacingLeft=4;spacingRight=4;overflow=hidden;rotatable=0;points=[[0,0.5],[1,0.5]];portConstraint=eastwest;whiteSpace=wrap;html=1;" parent="155" vertex="1">
                    <mxGeometry y="130" width="380" height="26" as="geometry"/>
                </mxCell>
                <mxCell id="89" value="idSubTarefa&lt;span style=&quot;background-color: transparent;&quot;&gt;: String&lt;/span&gt;" style="text;strokeColor=none;fillColor=none;align=left;verticalAlign=top;spacingLeft=4;spacingRight=4;overflow=hidden;rotatable=0;points=[[0,0.5],[1,0.5]];portConstraint=eastwest;whiteSpace=wrap;html=1;" parent="155" vertex="1">
                    <mxGeometry y="156" width="380" height="26" as="geometry"/>
                </mxCell>
                <mxCell id="157" value="" style="line;strokeWidth=1;fillColor=none;align=left;verticalAlign=middle;spacingTop=-1;spacingLeft=3;spacingRight=3;rotatable=0;labelPosition=right;points=[];portConstraint=eastwest;strokeColor=inherit;" parent="155" vertex="1">
                    <mxGeometry y="182" width="380" height="8" as="geometry"/>
                </mxCell>
                <mxCell id="182" value="atividade(descricao, dataRealizacao, IdUsuario, idSubTarefa)" style="text;strokeColor=none;fillColor=none;align=left;verticalAlign=top;spacingLeft=4;spacingRight=4;overflow=hidden;rotatable=0;points=[[0,0.5],[1,0.5]];portConstraint=eastwest;whiteSpace=wrap;html=1;" parent="155" vertex="1">
                    <mxGeometry y="190" width="380" height="26" as="geometry"/>
                </mxCell>
                <mxCell id="183" value="atividade(descricao, dataRealizacao, IdUsuario, idSubTarefa, anexo)" style="text;strokeColor=none;fillColor=none;align=left;verticalAlign=top;spacingLeft=4;spacingRight=4;overflow=hidden;rotatable=0;points=[[0,0.5],[1,0.5]];portConstraint=eastwest;whiteSpace=wrap;html=1;" parent="155" vertex="1">
                    <mxGeometry y="216" width="380" height="26" as="geometry"/>
                </mxCell>
                <mxCell id="159" value="SubTarefa" style="swimlane;fontStyle=1;align=center;verticalAlign=top;childLayout=stackLayout;horizontal=1;startSize=26;horizontalStack=0;resizeParent=1;resizeParentMax=0;resizeLast=0;collapsible=1;marginBottom=0;whiteSpace=wrap;html=1;" parent="1" vertex="1">
                    <mxGeometry x="-390" y="60" width="460" height="424" as="geometry"/>
                </mxCell>
                <mxCell id="160" value="id: String" style="text;strokeColor=none;fillColor=none;align=left;verticalAlign=top;spacingLeft=4;spacingRight=4;overflow=hidden;rotatable=0;points=[[0,0.5],[1,0.5]];portConstraint=eastwest;whiteSpace=wrap;html=1;" parent="159" vertex="1">
                    <mxGeometry y="26" width="460" height="26" as="geometry"/>
                </mxCell>
                <mxCell id="17" value="titulo: String" style="text;strokeColor=none;fillColor=none;align=left;verticalAlign=top;spacingLeft=4;spacingRight=4;overflow=hidden;rotatable=0;points=[[0,0.5],[1,0.5]];portConstraint=eastwest;whiteSpace=wrap;html=1;" parent="159" vertex="1">
                    <mxGeometry y="52" width="460" height="26" as="geometry"/>
                </mxCell>
                <mxCell id="41" value="dataLimite: DateTime" style="text;strokeColor=none;fillColor=none;align=left;verticalAlign=top;spacingLeft=4;spacingRight=4;overflow=hidden;rotatable=0;points=[[0,0.5],[1,0.5]];portConstraint=eastwest;whiteSpace=wrap;html=1;" parent="159" vertex="1">
                    <mxGeometry y="78" width="460" height="26" as="geometry"/>
                </mxCell>
                <mxCell id="18" value="dataEntraga: DateTime" style="text;strokeColor=none;fillColor=none;align=left;verticalAlign=top;spacingLeft=4;spacingRight=4;overflow=hidden;rotatable=0;points=[[0,0.5],[1,0.5]];portConstraint=eastwest;whiteSpace=wrap;html=1;" parent="159" vertex="1">
                    <mxGeometry y="104" width="460" height="26" as="geometry"/>
                </mxCell>
                <mxCell id="161" value="descricao: String" style="text;strokeColor=none;fillColor=none;align=left;verticalAlign=top;spacingLeft=4;spacingRight=4;overflow=hidden;rotatable=0;points=[[0,0.5],[1,0.5]];portConstraint=eastwest;whiteSpace=wrap;html=1;" parent="159" vertex="1">
                    <mxGeometry y="130" width="460" height="26" as="geometry"/>
                </mxCell>
                <mxCell id="163" value="&lt;span style=&quot;background-color: transparent;&quot;&gt;&lt;font color=&quot;#000000&quot;&gt;anexo&lt;/font&gt;: String&lt;/span&gt;" style="text;strokeColor=none;fillColor=none;align=left;verticalAlign=top;spacingLeft=4;spacingRight=4;overflow=hidden;rotatable=0;points=[[0,0.5],[1,0.5]];portConstraint=eastwest;whiteSpace=wrap;html=1;" parent="159" vertex="1">
                    <mxGeometry y="156" width="460" height="26" as="geometry"/>
                </mxCell>
                <mxCell id="51" value="ordem: Float" style="text;strokeColor=none;fillColor=none;align=left;verticalAlign=top;spacingLeft=4;spacingRight=4;overflow=hidden;rotatable=0;points=[[0,0.5],[1,0.5]];portConstraint=eastwest;whiteSpace=wrap;html=1;" parent="159" vertex="1">
                    <mxGeometry y="182" width="460" height="26" as="geometry"/>
                </mxCell>
                <mxCell id="179" value="status: String" style="text;strokeColor=none;fillColor=none;align=left;verticalAlign=top;spacingLeft=4;spacingRight=4;overflow=hidden;rotatable=0;points=[[0,0.5],[1,0.5]];portConstraint=eastwest;whiteSpace=wrap;html=1;" parent="159" vertex="1">
                    <mxGeometry y="208" width="460" height="26" as="geometry"/>
                </mxCell>
                <mxCell id="164" value="idResponsaveis: Array" style="text;strokeColor=none;fillColor=none;align=left;verticalAlign=top;spacingLeft=4;spacingRight=4;overflow=hidden;rotatable=0;points=[[0,0.5],[1,0.5]];portConstraint=eastwest;whiteSpace=wrap;html=1;" parent="159" vertex="1">
                    <mxGeometry y="234" width="460" height="26" as="geometry"/>
                </mxCell>
                <mxCell id="167" value="idTarefa: String" style="text;strokeColor=none;fillColor=none;align=left;verticalAlign=top;spacingLeft=4;spacingRight=4;overflow=hidden;rotatable=0;points=[[0,0.5],[1,0.5]];portConstraint=eastwest;whiteSpace=wrap;html=1;" parent="159" vertex="1">
                    <mxGeometry y="260" width="460" height="26" as="geometry"/>
                </mxCell>
                <mxCell id="166" value="" style="line;strokeWidth=1;fillColor=none;align=left;verticalAlign=middle;spacingTop=-1;spacingLeft=3;spacingRight=3;rotatable=0;labelPosition=right;points=[];portConstraint=eastwest;strokeColor=inherit;" parent="159" vertex="1">
                    <mxGeometry y="286" width="460" height="8" as="geometry"/>
                </mxCell>
                <mxCell id="184" value="subtarefa(titulo, dataLimite, descricao, ordem, status, idUsuarios, idTarefa)" style="text;strokeColor=none;fillColor=none;align=left;verticalAlign=top;spacingLeft=4;spacingRight=4;overflow=hidden;rotatable=0;points=[[0,0.5],[1,0.5]];portConstraint=eastwest;whiteSpace=wrap;html=1;" parent="159" vertex="1">
                    <mxGeometry y="294" width="460" height="26" as="geometry"/>
                </mxCell>
                <mxCell id="185" value="subtarefa(titulo, dataLimite, descricao, ordem, status, idUsuarios, idTarefa, anexo)" style="text;strokeColor=none;fillColor=none;align=left;verticalAlign=top;spacingLeft=4;spacingRight=4;overflow=hidden;rotatable=0;points=[[0,0.5],[1,0.5]];portConstraint=eastwest;whiteSpace=wrap;html=1;" parent="159" vertex="1">
                    <mxGeometry y="320" width="460" height="26" as="geometry"/>
                </mxCell>
                <mxCell id="186" value="finalizarSubTarefa(dataEntrega, status)" style="text;strokeColor=none;fillColor=none;align=left;verticalAlign=top;spacingLeft=4;spacingRight=4;overflow=hidden;rotatable=0;points=[[0,0.5],[1,0.5]];portConstraint=eastwest;whiteSpace=wrap;html=1;" parent="159" vertex="1">
                    <mxGeometry y="346" width="460" height="26" as="geometry"/>
                </mxCell>
                <mxCell id="205" value="adicionarResponsavel(idUsuario)" style="text;strokeColor=none;fillColor=none;align=left;verticalAlign=top;spacingLeft=4;spacingRight=4;overflow=hidden;rotatable=0;points=[[0,0.5],[1,0.5]];portConstraint=eastwest;whiteSpace=wrap;html=1;" parent="159" vertex="1">
                    <mxGeometry y="372" width="460" height="26" as="geometry"/>
                </mxCell>
                <mxCell id="206" value="removerResponsavel(idUsuario)" style="text;strokeColor=none;fillColor=none;align=left;verticalAlign=top;spacingLeft=4;spacingRight=4;overflow=hidden;rotatable=0;points=[[0,0.5],[1,0.5]];portConstraint=eastwest;whiteSpace=wrap;html=1;" parent="159" vertex="1">
                    <mxGeometry y="398" width="460" height="26" as="geometry"/>
                </mxCell>
                <mxCell id="168" value="Tarefa" style="swimlane;fontStyle=1;align=center;verticalAlign=top;childLayout=stackLayout;horizontal=1;startSize=26;horizontalStack=0;resizeParent=1;resizeParentMax=0;resizeLast=0;collapsible=1;marginBottom=0;whiteSpace=wrap;html=1;" parent="1" vertex="1">
                    <mxGeometry x="360" y="60" width="460" height="346" as="geometry"/>
                </mxCell>
                <mxCell id="169" value="id: String" style="text;strokeColor=none;fillColor=none;align=left;verticalAlign=top;spacingLeft=4;spacingRight=4;overflow=hidden;rotatable=0;points=[[0,0.5],[1,0.5]];portConstraint=eastwest;whiteSpace=wrap;html=1;" parent="168" vertex="1">
                    <mxGeometry y="26" width="460" height="26" as="geometry"/>
                </mxCell>
                <mxCell id="170" value="titulo: String" style="text;strokeColor=none;fillColor=none;align=left;verticalAlign=top;spacingLeft=4;spacingRight=4;overflow=hidden;rotatable=0;points=[[0,0.5],[1,0.5]];portConstraint=eastwest;whiteSpace=wrap;html=1;" parent="168" vertex="1">
                    <mxGeometry y="52" width="460" height="26" as="geometry"/>
                </mxCell>
                <mxCell id="171" value="dataLimite: DateTime" style="text;strokeColor=none;fillColor=none;align=left;verticalAlign=top;spacingLeft=4;spacingRight=4;overflow=hidden;rotatable=0;points=[[0,0.5],[1,0.5]];portConstraint=eastwest;whiteSpace=wrap;html=1;" parent="168" vertex="1">
                    <mxGeometry y="78" width="460" height="26" as="geometry"/>
                </mxCell>
                <mxCell id="172" value="dataEntraga: DateTime" style="text;strokeColor=none;fillColor=none;align=left;verticalAlign=top;spacingLeft=4;spacingRight=4;overflow=hidden;rotatable=0;points=[[0,0.5],[1,0.5]];portConstraint=eastwest;whiteSpace=wrap;html=1;" parent="168" vertex="1">
                    <mxGeometry y="104" width="460" height="26" as="geometry"/>
                </mxCell>
                <mxCell id="173" value="descricao: String" style="text;strokeColor=none;fillColor=none;align=left;verticalAlign=top;spacingLeft=4;spacingRight=4;overflow=hidden;rotatable=0;points=[[0,0.5],[1,0.5]];portConstraint=eastwest;whiteSpace=wrap;html=1;" parent="168" vertex="1">
                    <mxGeometry y="130" width="460" height="26" as="geometry"/>
                </mxCell>
                <mxCell id="174" value="&lt;span style=&quot;background-color: transparent;&quot;&gt;&lt;font color=&quot;#000000&quot;&gt;anexo&lt;/font&gt;: String&lt;/span&gt;" style="text;strokeColor=none;fillColor=none;align=left;verticalAlign=top;spacingLeft=4;spacingRight=4;overflow=hidden;rotatable=0;points=[[0,0.5],[1,0.5]];portConstraint=eastwest;whiteSpace=wrap;html=1;" parent="168" vertex="1">
                    <mxGeometry y="156" width="460" height="26" as="geometry"/>
                </mxCell>
                <mxCell id="43" value="status: String" style="text;strokeColor=none;fillColor=none;align=left;verticalAlign=top;spacingLeft=4;spacingRight=4;overflow=hidden;rotatable=0;points=[[0,0.5],[1,0.5]];portConstraint=eastwest;whiteSpace=wrap;html=1;" parent="168" vertex="1">
                    <mxGeometry y="182" width="460" height="26" as="geometry"/>
                </mxCell>
                <mxCell id="175" value="ordem: Float" style="text;strokeColor=none;fillColor=none;align=left;verticalAlign=top;spacingLeft=4;spacingRight=4;overflow=hidden;rotatable=0;points=[[0,0.5],[1,0.5]];portConstraint=eastwest;whiteSpace=wrap;html=1;" parent="168" vertex="1">
                    <mxGeometry y="208" width="460" height="26" as="geometry"/>
                </mxCell>
                <mxCell id="177" value="idProjeto: String" style="text;strokeColor=none;fillColor=none;align=left;verticalAlign=top;spacingLeft=4;spacingRight=4;overflow=hidden;rotatable=0;points=[[0,0.5],[1,0.5]];portConstraint=eastwest;whiteSpace=wrap;html=1;" parent="168" vertex="1">
                    <mxGeometry y="234" width="460" height="26" as="geometry"/>
                </mxCell>
                <mxCell id="178" value="" style="line;strokeWidth=1;fillColor=none;align=left;verticalAlign=middle;spacingTop=-1;spacingLeft=3;spacingRight=3;rotatable=0;labelPosition=right;points=[];portConstraint=eastwest;strokeColor=inherit;" parent="168" vertex="1">
                    <mxGeometry y="260" width="460" height="8" as="geometry"/>
                </mxCell>
                <mxCell id="200" value="tarefa(titulo, dataLimite, descricao, status, ordem, idProjeto)" style="text;strokeColor=none;fillColor=none;align=left;verticalAlign=top;spacingLeft=4;spacingRight=4;overflow=hidden;rotatable=0;points=[[0,0.5],[1,0.5]];portConstraint=eastwest;whiteSpace=wrap;html=1;" parent="168" vertex="1">
                    <mxGeometry y="268" width="460" height="26" as="geometry"/>
                </mxCell>
                <mxCell id="201" value="tarefa(titulo, dataLimite, descricao, status, ordem, idProjeto, anexo)" style="text;strokeColor=none;fillColor=none;align=left;verticalAlign=top;spacingLeft=4;spacingRight=4;overflow=hidden;rotatable=0;points=[[0,0.5],[1,0.5]];portConstraint=eastwest;whiteSpace=wrap;html=1;" parent="168" vertex="1">
                    <mxGeometry y="294" width="460" height="26" as="geometry"/>
                </mxCell>
                <mxCell id="203" value="finalizarSubTarefa(dataEntrega, status)" style="text;strokeColor=none;fillColor=none;align=left;verticalAlign=top;spacingLeft=4;spacingRight=4;overflow=hidden;rotatable=0;points=[[0,0.5],[1,0.5]];portConstraint=eastwest;whiteSpace=wrap;html=1;" parent="168" vertex="1">
                    <mxGeometry y="320" width="460" height="26" as="geometry"/>
                </mxCell>
                <mxCell id="211" value="" style="endArrow=none;html=1;exitX=1;exitY=0.5;exitDx=0;exitDy=0;entryX=0;entryY=0.5;entryDx=0;entryDy=0;" parent="1" source="106" target="98" edge="1">
                    <mxGeometry width="50" height="50" relative="1" as="geometry">
                        <mxPoint x="40" y="-340" as="sourcePoint"/>
                        <mxPoint x="90" y="-390" as="targetPoint"/>
                    </mxGeometry>
                </mxCell>
                <mxCell id="212" value="" style="triangle;whiteSpace=wrap;html=1;gradientColor=none;gradientDirection=radial;fillColor=#000000;" parent="1" vertex="1">
                    <mxGeometry x="128" y="-452" width="10" height="20" as="geometry"/>
                </mxCell>
                <mxCell id="213" value="Recebe" style="text;strokeColor=none;fillColor=none;html=1;fontSize=18;fontStyle=1;verticalAlign=middle;align=center;" parent="1" vertex="1">
                    <mxGeometry x="30" y="-461" width="100" height="40" as="geometry"/>
                </mxCell>
                <mxCell id="214" value="0..*" style="text;strokeColor=none;fillColor=none;html=1;fontSize=18;fontStyle=1;verticalAlign=middle;align=center;" parent="1" vertex="1">
                    <mxGeometry x="160" y="-457" width="40" height="30" as="geometry"/>
                </mxCell>
                <mxCell id="215" value="1..*" style="text;strokeColor=none;fillColor=none;html=1;fontSize=18;fontStyle=1;verticalAlign=middle;align=center;" parent="1" vertex="1">
                    <mxGeometry x="-25" y="-457" width="40" height="30" as="geometry"/>
                </mxCell>
                <mxCell id="216" value="" style="endArrow=none;html=1;exitX=0;exitY=0.5;exitDx=0;exitDy=0;entryX=0;entryY=0.5;entryDx=0;entryDy=0;edgeStyle=orthogonalEdgeStyle;" edge="1" parent="1" source="23" target="106">
                    <mxGeometry width="50" height="50" relative="1" as="geometry">
                        <mxPoint x="-380" y="-290" as="sourcePoint"/>
                        <mxPoint x="-155" y="-288" as="targetPoint"/>
                    </mxGeometry>
                </mxCell>
                <mxCell id="217" value="Realiza" style="text;strokeColor=none;fillColor=none;html=1;fontSize=18;fontStyle=1;verticalAlign=middle;align=center;rotation=-90;" vertex="1" parent="1">
                    <mxGeometry x="-425" y="-320" width="100" height="40" as="geometry"/>
                </mxCell>
                <mxCell id="219" value="" style="triangle;whiteSpace=wrap;html=1;gradientColor=none;gradientDirection=radial;fillColor=#000000;rotation=90;" vertex="1" parent="1">
                    <mxGeometry x="-380" y="-260" width="10" height="20" as="geometry"/>
                </mxCell>
                <mxCell id="220" value="1" style="text;strokeColor=none;fillColor=none;html=1;fontSize=18;fontStyle=1;verticalAlign=middle;align=center;" vertex="1" parent="1">
                    <mxGeometry x="-310" y="-461" width="40" height="30" as="geometry"/>
                </mxCell>
                <mxCell id="221" value="0..*" style="text;strokeColor=none;fillColor=none;html=1;fontSize=18;fontStyle=1;verticalAlign=middle;align=center;" vertex="1" parent="1">
                    <mxGeometry x="-395" y="-180" width="40" height="30" as="geometry"/>
                </mxCell>
                <mxCell id="222" value="" style="endArrow=none;html=1;exitX=0;exitY=0.5;exitDx=0;exitDy=0;entryX=0;entryY=0.5;entryDx=0;entryDy=0;edgeStyle=orthogonalEdgeStyle;" edge="1" parent="1" source="89" target="41">
                    <mxGeometry width="50" height="50" relative="1" as="geometry">
                        <mxPoint x="-270" y="-270" as="sourcePoint"/>
                        <mxPoint x="-45" y="-268" as="targetPoint"/>
                    </mxGeometry>
                </mxCell>
                <mxCell id="223" value="" style="triangle;whiteSpace=wrap;html=1;gradientColor=none;gradientDirection=radial;fillColor=#000000;rotation=-90;" vertex="1" parent="1">
                    <mxGeometry x="-430" y="-40" width="10" height="20" as="geometry"/>
                </mxCell>
                <mxCell id="225" value="Possui" style="text;strokeColor=none;fillColor=none;html=1;fontSize=18;fontStyle=1;verticalAlign=middle;align=center;rotation=-90;" vertex="1" parent="1">
                    <mxGeometry x="-475" width="100" height="40" as="geometry"/>
                </mxCell>
                <mxCell id="226" value="0..*" style="text;strokeColor=none;fillColor=none;html=1;fontSize=18;fontStyle=1;verticalAlign=middle;align=center;" vertex="1" parent="1">
                    <mxGeometry x="-390" y="-90" width="40" height="30" as="geometry"/>
                </mxCell>
                <mxCell id="227" value="1" style="text;strokeColor=none;fillColor=none;html=1;fontSize=18;fontStyle=1;verticalAlign=middle;align=center;" vertex="1" parent="1">
                    <mxGeometry x="-435" y="120" width="40" height="30" as="geometry"/>
                </mxCell>
                <mxCell id="228" value="" style="endArrow=none;html=1;exitX=1;exitY=0.5;exitDx=0;exitDy=0;" edge="1" parent="1" source="41" target="171">
                    <mxGeometry width="50" height="50" relative="1" as="geometry">
                        <mxPoint x="180" y="-140" as="sourcePoint"/>
                        <mxPoint x="405" y="-138" as="targetPoint"/>
                    </mxGeometry>
                </mxCell>
                <mxCell id="229" value="Possui" style="text;strokeColor=none;fillColor=none;html=1;fontSize=18;fontStyle=1;verticalAlign=middle;align=center;" vertex="1" parent="1">
                    <mxGeometry x="160" y="115" width="100" height="40" as="geometry"/>
                </mxCell>
                <mxCell id="232" value="" style="triangle;whiteSpace=wrap;html=1;gradientColor=none;gradientDirection=radial;fillColor=#000000;rotation=-180;" vertex="1" parent="1">
                    <mxGeometry x="160" y="125" width="10" height="20" as="geometry"/>
                </mxCell>
                <mxCell id="233" value="0..*" style="text;strokeColor=none;fillColor=none;html=1;fontSize=18;fontStyle=1;verticalAlign=middle;align=center;" vertex="1" parent="1">
                    <mxGeometry x="80" y="120" width="40" height="30" as="geometry"/>
                </mxCell>
                <mxCell id="234" value="1" style="text;strokeColor=none;fillColor=none;html=1;fontSize=18;fontStyle=1;verticalAlign=middle;align=center;" vertex="1" parent="1">
                    <mxGeometry x="310" y="120" width="40" height="30" as="geometry"/>
                </mxCell>
                <mxCell id="235" value="" style="endArrow=none;html=1;exitX=0.026;exitY=0.003;exitDx=0;exitDy=0;entryX=0;entryY=0.5;entryDx=0;entryDy=0;exitPerimeter=0;edgeStyle=orthogonalEdgeStyle;" edge="1" parent="1" source="168" target="153">
                    <mxGeometry width="50" height="50" relative="1" as="geometry">
                        <mxPoint x="250" y="-150" as="sourcePoint"/>
                        <mxPoint x="475" y="-148" as="targetPoint"/>
                    </mxGeometry>
                </mxCell>
                <mxCell id="236" value="" style="triangle;whiteSpace=wrap;html=1;gradientColor=none;gradientDirection=radial;fillColor=#000000;rotation=-180;" vertex="1" parent="1">
                    <mxGeometry x="390" y="-70" width="10" height="20" as="geometry"/>
                </mxCell>
                <mxCell id="237" value="Possui" style="text;strokeColor=none;fillColor=none;html=1;fontSize=18;fontStyle=1;verticalAlign=middle;align=center;" vertex="1" parent="1">
                    <mxGeometry x="388" y="-79" width="100" height="40" as="geometry"/>
                </mxCell>
                <mxCell id="238" value="1" style="text;strokeColor=none;fillColor=none;html=1;fontSize=18;fontStyle=1;verticalAlign=middle;align=center;" vertex="1" parent="1">
                    <mxGeometry x="540" y="-74" width="40" height="30" as="geometry"/>
                </mxCell>
                <mxCell id="239" value="0..*" style="text;strokeColor=none;fillColor=none;html=1;fontSize=18;fontStyle=1;verticalAlign=middle;align=center;" vertex="1" parent="1">
                    <mxGeometry x="330" y="30" width="40" height="30" as="geometry"/>
                </mxCell>
                <mxCell id="240" value="" style="endArrow=none;html=1;exitX=1;exitY=0.5;exitDx=0;exitDy=0;entryX=0;entryY=0.5;entryDx=0;entryDy=0;edgeStyle=orthogonalEdgeStyle;" edge="1" parent="1" source="108" target="148">
                    <mxGeometry width="50" height="50" relative="1" as="geometry">
                        <mxPoint y="-340" as="sourcePoint"/>
                        <mxPoint x="560" y="-210" as="targetPoint"/>
                        <Array as="points">
                            <mxPoint x="100" y="-377"/>
                            <mxPoint x="100" y="-179"/>
                        </Array>
                    </mxGeometry>
                </mxCell>
                <mxCell id="241" value="Participa" style="text;strokeColor=none;fillColor=none;html=1;fontSize=18;fontStyle=1;verticalAlign=middle;align=center;" vertex="1" parent="1">
                    <mxGeometry x="180" y="-216" width="100" height="40" as="geometry"/>
                </mxCell>
                <mxCell id="242" value="" style="triangle;whiteSpace=wrap;html=1;gradientColor=none;gradientDirection=radial;fillColor=#000000;" vertex="1" parent="1">
                    <mxGeometry x="280" y="-206" width="10" height="20" as="geometry"/>
                </mxCell>
                <mxCell id="243" value="0..*" style="text;strokeColor=none;fillColor=none;html=1;fontSize=18;fontStyle=1;verticalAlign=middle;align=center;" vertex="1" parent="1">
                    <mxGeometry x="530" y="-211" width="40" height="30" as="geometry"/>
                </mxCell>
                <mxCell id="244" value="1..*" style="text;strokeColor=none;fillColor=none;html=1;fontSize=18;fontStyle=1;verticalAlign=middle;align=center;" vertex="1" parent="1">
                    <mxGeometry x="-25" y="-410" width="40" height="30" as="geometry"/>
                </mxCell>
            </root>
        </mxGraphModel>
    </diagram>
</mxfile>